<mxfile host="app.diagrams.net" modified="2023-10-04T18:20:39.105Z" agent="Mozilla/5.0 (Windows NT 10.0; Win64; x64; rv:109.0) Gecko/20100101 Firefox/118.0" version="22.0.2" etag="ULVHjN4WctB7UsTk-NKr" type="gitlab">
  <diagram name="PÃ¡gina-1" id="NhnxOUjFi3Z-zDULhIH4">
    <mxGraphModel>
      <root>
        <mxCell id="0" />
        <mxCell id="1" parent="0" />
      </root>
    </mxGraphModel>
  </diagram>
</mxfile>
